<?xml version="1.0" encoding="utf-8"?>
<!-- Generator: Adobe Illustrator 19.0.0, SVG Export Plug-In . SVG Version: 6.00 Build 0)  -->
<svg version="1.1" id="Capa_1" xmlns="http://www.w3.org/2000/svg" xmlns:xlink="http://www.w3.org/1999/xlink" x="0px" y="0px"
	 viewBox="-296 388 18 18" style="enable-background:new -296 388 18 18;" xml:space="preserve">
<style type="text/css">
	.st0{fill:none;}
	.st1{fill:#FFFFFF;}
</style>
<path class="st0" d="M-592,776h18v18h-18V776z"/>
<path class="st1" d="M-286.2,388.3h-8.1c-0.7,0-1.3,0.6-1.3,1.3v9.5h1.3v-9.5h8.1V388.3z M-284.1,390.9h-7.4c-0.7,0-1.3,0.6-1.3,1.3
	v9.5c0,0.7,0.6,1.3,1.3,1.3h7.4c0.7,0,1.3-0.6,1.3-1.3v-9.5C-282.8,391.5-283.4,390.9-284.1,390.9z M-284.1,401.7h-7.4v-9.5h7.4
	V401.7z"/>
<path class="st1" d="M-281.3,399.8c-1.6,0-3,1.3-3,3s1.3,3,3,3c1.6,0,3-1.3,3-3S-279.7,399.8-281.3,399.8z M-279.8,403.1h-1.2v1.2
	h-0.6v-1.2h-1.2v-0.6h1.2v-1.2h0.6v1.2h1.2V403.1z"/>
</svg>
